<?xml version="1.0" encoding="UTF-8"?><svg id="a" xmlns="http://www.w3.org/2000/svg" xmlns:xlink="http://www.w3.org/1999/xlink" viewBox="0 0 1105.78 314.14"><defs><style>.c{fill:url(#b);}</style><linearGradient id="b" x1="13.48" y1="142.21" x2="1074.82" y2="142.21" gradientTransform="matrix(1, 0, 0, 1, 0, 0)" gradientUnits="userSpaceOnUse"><stop offset="0" stop-color="#997b4c"/><stop offset=".21" stop-color="#e2d47f"/><stop offset=".27" stop-color="#fbf290"/><stop offset=".33" stop-color="#f1e485"/><stop offset=".44" stop-color="#dac069"/><stop offset=".55" stop-color="#bc9346"/><stop offset=".76" stop-color="#aa8241"/><stop offset=".84" stop-color="#a37c3f"/><stop offset=".84" stop-color="#a57e40"/><stop offset=".89" stop-color="#c9b062"/><stop offset=".94" stop-color="#e4d47b"/><stop offset=".98" stop-color="#f5e98a"/><stop offset="1" stop-color="#fbf290"/></linearGradient></defs><path class="c" d="M158.38,195.43c-10.05,8.89-20.65,15.41-31.8,19.56-11.15,4.15-22.18,6.23-33.11,6.23s-20.76-1.82-30.38-5.46c-9.62-3.64-18.11-8.92-25.46-15.85-7.36-6.92-13.22-15.26-17.59-25.03-4.37-9.76-6.56-20.76-6.56-33,0-13.4,2.29-25.1,6.88-35.08,4.59-9.98,10.71-18.29,18.36-24.92,7.65-6.63,16.46-11.58,26.45-14.86,9.98-3.28,20.29-4.92,30.93-4.92,9.18,0,18.28,1.2,27.32,3.61,9.03,2.4,17.63,5.94,25.79,10.6l-8.52,13.33c-7.14-7.87-15.08-13.88-23.82-18.03-8.74-4.15-17.48-6.23-26.23-6.23-11.37,0-20.91,2.19-28.63,6.56-7.73,4.37-13.88,10.16-18.47,17.38-4.59,7.21-7.69,15.41-9.29,24.59-1.6,9.18-1.86,18.54-.76,28.09,1.09,9.54,3.39,18.91,6.88,28.08s8.09,17.38,13.77,24.59,12.35,13,20,17.38,16.06,6.56,25.24,6.56c5.54,0,10.85-.87,15.96-2.62,5.1-1.75,9.58-4.19,13.44-7.32,3.86-3.13,6.92-6.99,9.18-11.58,2.26-4.59,3.39-9.73,3.39-15.41v-16.17c0-3.06-.11-5.79-.33-8.2-.22-2.4-.95-4.44-2.19-6.12-1.24-1.67-3.06-2.99-5.46-3.93-2.4-.95-5.79-1.42-10.16-1.42h-12.24v-1.97h49.83c-1.31,7.58-2.04,15.41-2.19,23.5-.15,8.09-.22,17.45-.22,28.08Z"/><path class="c" d="M226.57,162.21c0,5.25,.03,11.15,.11,17.7,.07,6.56,.29,12.71,.66,18.47,.36,5.76,.98,10.57,1.86,14.42,.87,3.86,2.19,5.79,3.93,5.79h-30.6c1.75,0,3.06-1.89,3.93-5.68,.87-3.79,1.49-8.49,1.86-14.1,.36-5.61,.58-11.66,.66-18.14,.07-6.48,.11-12.35,.11-17.59v-41.96c0-5.25-.04-11.11-.11-17.59-.08-6.48-.29-12.53-.66-18.14-.37-5.61-.98-10.31-1.86-14.1-.87-3.79-2.19-5.68-3.93-5.68h30.6c-1.75,0-3.06,1.93-3.93,5.79-.87,3.86-1.5,8.67-1.86,14.43-.37,5.76-.58,11.91-.66,18.47-.08,6.56-.11,12.46-.11,17.7v40.22Z"/><path class="c" d="M408.2,65.6c-.87,0-1.82,.73-2.84,2.19-1.02,1.46-2.11,3.35-3.28,5.68-1.17,2.33-2.37,5.03-3.61,8.09-1.24,3.06-2.51,6.12-3.82,9.18l-51.8,131.79h-1.53l-53.55-130.26c-1.31-3.35-2.7-6.63-4.15-9.83-1.46-3.2-2.92-6.04-4.37-8.52-1.46-2.48-2.92-4.48-4.37-6.01-1.46-1.53-2.92-2.29-4.37-2.29h33.88c-1.6,0-2.51,.98-2.73,2.95s0,4.41,.66,7.32c.66,2.92,1.6,6.12,2.84,9.62,1.24,3.5,2.44,6.78,3.61,9.84l41.09,103.16,41.96-108.19c2.77-6.85,4.81-12.68,6.12-17.49s1.24-7.21-.22-7.21h10.49Z"/><path class="c" d="M440.11,193.9c-2.62,6.85-4.63,12.68-6.01,17.48-1.39,4.81-1.35,7.21,.11,7.21h-10.49c.87,0,1.82-.73,2.84-2.19,1.02-1.46,2.11-3.39,3.28-5.79,1.16-2.4,2.37-5.1,3.61-8.09,1.24-2.98,2.51-6.01,3.82-9.07l52.02-131.58h1.53l53.33,130.04c1.31,3.35,2.69,6.63,4.15,9.84,1.46,3.21,2.95,6.05,4.48,8.52,1.53,2.48,3.02,4.48,4.48,6.01,1.45,1.53,2.91,2.29,4.37,2.29h-34.1c1.6,0,2.51-.98,2.73-2.95,.22-1.97,0-4.41-.66-7.32-.66-2.91-1.6-6.12-2.84-9.62-1.24-3.5-2.44-6.78-3.61-9.83l-6.99-17.7h-67.32l-8.74,22.73Zm9.62-24.7h65.57l-33.22-83.49-32.35,83.49Z"/><path class="c" d="M740.42,142.1c0,13.26-2.22,24.88-6.67,34.86-4.45,9.98-10.27,18.29-17.49,24.92-7.21,6.63-15.48,11.62-24.81,14.97-9.33,3.35-18.8,5.03-28.41,5.03s-19.09-1.68-28.41-5.03c-9.33-3.35-17.59-8.34-24.81-14.97-7.21-6.63-13.04-14.93-17.48-24.92-4.45-9.98-6.67-21.6-6.67-34.86s2.22-25.06,6.67-34.97c4.44-9.91,10.27-18.21,17.48-24.92,7.21-6.7,15.48-11.69,24.81-14.97,9.32-3.28,18.8-4.92,28.41-4.92s19.09,1.64,28.41,4.92c9.32,3.28,17.59,8.27,24.81,14.97,7.21,6.7,13.04,15.01,17.49,24.92,4.44,9.91,6.67,21.57,6.67,34.97Zm-133.11,9.83c2.04,11.51,5.14,21.49,9.29,29.94,4.15,8.45,9,15.41,14.54,20.87,5.54,5.46,11.51,9.54,17.92,12.24,6.41,2.7,12.82,4.04,19.23,4.04,7.87,0,15.37-1.89,22.51-5.68,7.14-3.79,13.19-9.36,18.14-16.72,4.95-7.36,8.45-16.43,10.49-27.21,2.04-10.78,1.82-23.17-.66-37.16-2.04-11.51-5.17-21.49-9.4-29.94-4.23-8.45-9.07-15.44-14.53-20.98-5.46-5.54-11.4-9.65-17.81-12.35-6.41-2.69-12.82-4.04-19.23-4.04-7.87,0-15.37,1.93-22.51,5.79-7.14,3.86-13.19,9.47-18.14,16.83-4.96,7.36-8.45,16.43-10.49,27.21-2.04,10.78-1.82,23.17,.66,37.16Z"/><path class="c" d="M804.02,162.21c0,5.25,.03,11.15,.11,17.7,.07,6.56,.29,12.71,.66,18.47,.36,5.76,.98,10.57,1.86,14.42,.87,3.86,2.19,5.79,3.93,5.79h-30.6c1.75,0,3.06-1.89,3.93-5.68,.87-3.79,1.49-8.49,1.86-14.1,.36-5.61,.58-11.66,.66-18.14,.07-6.48,.11-12.35,.11-17.59v-41.96l-.22,.87v-17.7c0-6.56-.18-12.71-.55-18.47-.37-5.75-.98-10.56-1.86-14.43-.87-3.86-2.19-5.79-3.93-5.79h58.79c9.18,0,17.05,.95,23.61,2.84,6.56,1.9,11.95,4.45,16.17,7.65,4.22,3.21,7.32,6.88,9.29,11.04,1.97,4.15,2.95,8.49,2.95,13,0,5.39-1.09,10.05-3.28,13.99-2.19,3.93-4.96,7.4-8.31,10.38-3.35,2.99-6.92,5.61-10.71,7.87-3.79,2.26-7.36,4.34-10.71,6.23-3.35,1.9-6.12,3.79-8.31,5.68-2.19,1.9-3.28,4.01-3.28,6.34s1.24,5.54,3.72,9.62c2.48,4.08,5.68,8.52,9.62,13.33,3.93,4.81,8.38,9.73,13.33,14.75,4.95,5.03,9.98,9.69,15.08,13.99,5.1,4.3,10.02,7.94,14.75,10.93,4.73,2.99,8.78,4.77,12.13,5.35h-35.41c-5.39-4.22-10.53-9.07-15.41-14.53-4.88-5.46-9.18-10.96-12.9-16.5-3.71-5.54-6.7-10.93-8.96-16.17-2.26-5.25-3.39-9.76-3.39-13.55,0-4.08,1.75-7.72,5.25-10.93,3.5-3.2,7.32-6.7,11.47-10.49,4.15-3.79,7.94-8.27,11.37-13.44,3.42-5.17,5.14-11.76,5.14-19.78,0-10.93-2.81-19.6-8.41-26.01-5.61-6.41-13.88-9.62-24.81-9.62h-34.75v94.64Z"/><path class="c" d="M953.3,193.9c-2.62,6.85-4.63,12.68-6.01,17.48-1.39,4.81-1.35,7.21,.11,7.21h-10.49c.88,0,1.82-.73,2.84-2.19,1.02-1.46,2.11-3.39,3.28-5.79,1.16-2.4,2.37-5.1,3.61-8.09,1.24-2.98,2.51-6.01,3.83-9.07l52.02-131.58h1.53l53.33,130.04c1.31,3.35,2.69,6.63,4.15,9.84,1.45,3.21,2.95,6.05,4.48,8.52,1.53,2.48,3.02,4.48,4.48,6.01,1.46,1.53,2.91,2.29,4.37,2.29h-34.1c1.6,0,2.51-.98,2.73-2.95,.22-1.97,0-4.41-.66-7.32-.66-2.91-1.61-6.12-2.84-9.62-1.24-3.5-2.44-6.78-3.61-9.83l-6.99-17.7h-67.32l-8.74,22.73Zm9.62-24.7h65.57l-33.22-83.49-32.35,83.49Z"/></svg>